<?xml version="1.0" encoding="UTF-8"?>
<svg xmlns="http://www.w3.org/2000/svg" xmlns:xlink="http://www.w3.org/1999/xlink" id="Слой_1" x="0px" y="0px" viewBox="0 0 512 512" style="enable-background:new 0 0 512 512;" xml:space="preserve">
<style type="text/css">
	.st0{fill:#EEEEEE;}
	.st1{fill:#9C9C9C;}
	.st2{fill:#E9E9E9;}
	.st3{fill:#FFFFFF;}
	.st4{fill:#F1AA95;}
	.st5{fill:none;stroke:#9C9C9C;stroke-width:2;stroke-miterlimit:10;}
	.st6{fill:none;stroke:#9C9C9C;stroke-width:2;stroke-miterlimit:10;stroke-dasharray:4.9661,4.9661;}
	.st7{fill:#9D9C9C;}
</style>
<ellipse class="st0" cx="263.7" cy="476.6" rx="244.9" ry="21"></ellipse>
<g>
	<path class="st1" d="M432.2,461.9H91.8c-0.5,0-1-0.4-1-1v-52.7c0-0.6,0.5-1,1-1h340.5c0.6,0,1,0.4,1,1v52.7   C433.2,461.5,432.8,461.9,432.2,461.9z"></path>
	<path class="st2" d="M421.3,452.9H102.9c-0.3,0-0.5-0.2-0.5-0.5v-34.8c0-0.3,0.2-0.5,0.5-0.5h318.4c0.3,0,0.5,0.2,0.5,0.5v34.8   C421.8,452.7,421.6,452.9,421.3,452.9z"></path>
</g>
<g>
	<path class="st1" d="M444.9,440.1H80.4c-0.5,0-1-0.4-1-1v-34.4c0-0.5,0.5-1,1-1h364.5c0.5,0,1,0.5,1,1v34.4   C445.9,439.7,445.4,440.1,444.9,440.1z"></path>
	<path class="st2" d="M432.1,431.7H91.7c-0.3,0-0.5-0.2-0.5-0.5v-20.1c0-0.3,0.2-0.5,0.5-0.5h340.4c0.3,0,0.5,0.2,0.5,0.5v20.1   C432.6,431.5,432.4,431.7,432.1,431.7z"></path>
</g>
<path class="st1" d="M455,418.3H68.9c-1.1,0-2-0.9-2-2V75.5c0-1.1,0.9-2,2-2H455c1.1,0,2,0.9,2,2v340.9  C457,417.4,456.1,418.3,455,418.3z"></path>
<path class="st3" d="M445.6,403.7H79.4c-0.6,0-1-0.4-1-1v-231c0-0.6,0.4-1,1-1h366.1c0.6,0,1,0.4,1,1v231  C446.6,403.3,446.1,403.7,445.6,403.7z"></path>
<path class="st4" d="M445.6,158.9H79.4c-0.6,0-1-0.4-1-1V83.4c0-0.5,0.4-1,1-1h366.1c0.6,0,1,0.5,1,1v74.5  C446.6,158.5,446.1,158.9,445.6,158.9z"></path>
<g>
	<g>
		<line class="st5" x1="73.2" y1="140.2" x2="75.7" y2="140.2"></line>
		<line class="st6" x1="80.6" y1="140.2" x2="445.7" y2="140.2"></line>
		<line class="st5" x1="448.1" y1="140.2" x2="450.6" y2="140.2"></line>
	</g>
</g>
<g>
	<path class="st7" d="M266.3,349.7c-6.3,0-12.6,0.1-18.9-0.1c-3.7-0.1-8.6-0.2-8.3-5.2c0.3-4.6,5.1-4.9,8.9-4.9   c11.9-0.1,23.9-0.1,35.8,0.1c3.8,0,8.9,0.6,9.1,4.8c0.4,6.6-5.7,5.1-9.7,5.3C277.6,349.9,272,349.7,266.3,349.7z"></path>
	<path class="st7" d="M404.4,278.9c-1.2,4.9-3.9,8.5-9,8.3c-5.6-0.2-9.8-3.6-9.8-9.5c-0.1-5.9,3.8-9.6,9.7-9.1   C401,269.1,403.7,273.4,404.4,278.9z"></path>
	<path class="st7" d="M146.3,277.2c-0.2,6-3.4,9.8-9.2,9.9c-4.8,0.1-8.2-3.3-8.7-8.3c-0.6-6.3,3.1-9.4,9-9.4   C142.4,269.4,145.7,272,146.3,277.2z"></path>
</g>
<g>
	<path class="st1" d="M144.9,109.6h-34.6c-1.1,0-2-0.9-2-2V55.8c0-1.1,0.9-2,2-2h34.6c1.1,0,2,0.9,2,2v51.8   C146.9,108.7,146,109.6,144.9,109.6z"></path>
	<path class="st0" d="M137.3,102.4h-19.5c-0.6,0-1-0.4-1-1v-38c0-0.5,0.4-1,1-1h19.5c0.5,0,1,0.5,1,1v38   C138.3,101.9,137.9,102.4,137.3,102.4z"></path>
</g>
<g>
	<path class="st1" d="M209.3,109.6h-34.6c-1.1,0-2-0.9-2-2V55.8c0-1.1,0.9-2,2-2h34.6c1.1,0,2,0.9,2,2v51.8   C211.3,108.7,210.4,109.6,209.3,109.6z"></path>
	<path class="st0" d="M201.7,102.4h-19.5c-0.5,0-1-0.4-1-1v-38c0-0.5,0.5-1,1-1h19.5c0.6,0,1,0.5,1,1v38   C202.7,101.9,202.3,102.4,201.7,102.4z"></path>
</g>
<g>
	<path class="st1" d="M278.4,109.6h-34.6c-1.1,0-2-0.9-2-2V55.8c0-1.1,0.9-2,2-2h34.6c1.1,0,2,0.9,2,2v51.8   C280.4,108.7,279.5,109.6,278.4,109.6z"></path>
	<path class="st0" d="M270.8,102.4h-19.5c-0.5,0-1-0.4-1-1v-38c0-0.5,0.5-1,1-1h19.5c0.5,0,1,0.5,1,1v38   C271.8,101.9,271.3,102.4,270.8,102.4z"></path>
</g>
<g>
	<path class="st1" d="M347.2,109.6h-34.6c-1.1,0-2-0.9-2-2V55.8c0-1.1,0.9-2,2-2h34.6c1.1,0,2,0.9,2,2v51.8   C349.2,108.7,348.3,109.6,347.2,109.6z"></path>
	<path class="st0" d="M339.6,102.4h-19.5c-0.5,0-1-0.4-1-1v-38c0-0.5,0.5-1,1-1h19.5c0.5,0,1,0.5,1,1v38   C340.6,101.9,340.1,102.4,339.6,102.4z"></path>
</g>
<g>
	<path class="st1" d="M415,109.6h-34.6c-1.1,0-2-0.9-2-2V55.8c0-1.1,0.9-2,2-2H415c1.1,0,2,0.9,2,2v51.8   C417,108.7,416.1,109.6,415,109.6z"></path>
	<path class="st0" d="M407.4,102.4H388c-0.6,0-1-0.4-1-1v-38c0-0.5,0.4-1,1-1h19.5c0.6,0,1,0.5,1,1v38   C408.4,101.9,408,102.4,407.4,102.4z"></path>
</g>
<g>
	<path class="st1" d="M46.5,51.3l-4,4c-0.4,0.4-1,0.4-1.4,0L18.7,32.9c-0.4-0.4-0.4-1,0-1.4l4-4c0.4-0.4,1-0.4,1.4,0l22.4,22.4   C46.9,50.3,46.9,50.9,46.5,51.3z"></path>
	<path class="st1" d="M68.8,46.3h-5.6c-0.5,0-1-0.4-1-1V13.7c0-0.6,0.5-1,1-1h5.6c0.5,0,1,0.4,1,1v31.7   C69.8,45.9,69.4,46.3,68.8,46.3z"></path>
	<path class="st1" d="M37.6,77.6V72c0-0.5-0.5-1-1-1H4.9c-0.5,0-1,0.5-1,1l0,5.6c0,0.6,0.4,1,1,1h31.7   C37.1,78.6,37.6,78.2,37.6,77.6z"></path>
</g>
</svg>
